<?xml version="1.0" encoding="UTF-8" standalone="no"?>
<!-- Created by diasvg.py -->
<svg width="25.204cm" height="21.747cm" viewBox="0.600 0.850 25.804 22.598"
 xmlns="http://www.w3.org/2000/svg"
 xmlns:xlink="http://www.w3.org/1999/xlink">
<rect x="1.050" y="0.900" width="6.660" height="1.400" fill="#FFFFFF" stroke="none" stroke-width="0"/>
<rect x="1.050" y="0.900" width="6.660" height="1.400" fill="none" stroke="#000000" stroke-width="0.100" />
<text x="4.380" y="1.850"  fill="#000000" text-anchor="middle" font-size="0.80" font-family="sans" font-style="normal" font-weight="700">
Expense</text>
<rect x="1.050" y="2.300" width="6.660" height="1.800" fill="#FFFFFF" stroke="none" stroke-width="0"/>
<rect x="1.050" y="2.300" width="6.660" height="1.800" fill="none" stroke="#000000" stroke-width="0.100" />
<text x="1.200" y="3.000"  fill="#000000" text-anchor="start" font-size="0.60" font-family="monospace" font-style="normal" font-weight="400">
+name: String</text>
<text x="1.200" y="3.800"  fill="#000000" text-anchor="start" font-size="0.60" font-family="monospace" font-style="normal" font-weight="400">
+value: Monetary</text>
<rect x="1.050" y="4.100" width="6.660" height="0.400" fill="#FFFFFF" stroke="none" stroke-width="0"/>
<rect x="1.050" y="4.100" width="6.660" height="0.400" fill="none" stroke="#000000" stroke-width="0.100" />
<rect x="12.500" y="4.800" width="12.435" height="1.400" fill="#FFFFFF" stroke="none" stroke-width="0"/>
<rect x="12.500" y="4.800" width="12.435" height="1.400" fill="none" stroke="#000000" stroke-width="0.100" />
<text x="18.718" y="5.750"  fill="#000000" text-anchor="middle" font-size="0.80" font-family="sans" font-style="normal" font-weight="700">
Claim</text>
<rect x="12.500" y="6.200" width="12.435" height="1.800" fill="#FFFFFF" stroke="none" stroke-width="0"/>
<rect x="12.500" y="6.200" width="12.435" height="1.800" fill="none" stroke="#000000" stroke-width="0.100" />
<text x="12.650" y="6.900"  fill="#000000" text-anchor="start" font-size="0.60" font-family="monospace" font-style="normal" font-weight="400">
+name: String</text>
<text x="12.650" y="7.700"  fill="#000000" text-anchor="start" font-size="0.60" font-family="monospace" font-style="normal" font-weight="400">
+status: Status</text>
<rect x="12.500" y="8.000" width="12.435" height="2.600" fill="#FFFFFF" stroke="none" stroke-width="0"/>
<rect x="12.500" y="8.000" width="12.435" height="2.600" fill="none" stroke="#000000" stroke-width="0.100" />
<text x="12.650" y="8.700"  fill="#000000" text-anchor="start" font-size="0.60" font-family="monospace" font-style="normal" font-weight="400">
+addExpense(expense:Expense)</text>
<text x="12.650" y="9.500"  fill="#000000" text-anchor="start" font-size="0.60" font-family="monospace" font-style="normal" font-weight="400">
+deleteExpense(expense:Expense)</text>
<text x="12.650" y="10.300"  fill="#000000" text-anchor="start" font-size="0.60" font-family="monospace" font-style="normal" font-weight="400">
+getExpense(index:int): Expense</text>
<rect x="0.850" y="16.747" width="8.585" height="1.400" fill="#FFFFFF" stroke="none" stroke-width="0"/>
<rect x="0.850" y="16.747" width="8.585" height="1.400" fill="none" stroke="#000000" stroke-width="0.100" />
<text x="5.143" y="17.697"  fill="#000000" text-anchor="middle" font-size="0.80" font-family="sans" font-style="normal" font-weight="700">
Email</text>
<rect x="0.850" y="18.147" width="8.585" height="2.600" fill="#FFFFFF" stroke="none" stroke-width="0"/>
<rect x="0.850" y="18.147" width="8.585" height="2.600" fill="none" stroke="#000000" stroke-width="0.100" />
<text x="1.000" y="18.848"  fill="#000000" text-anchor="start" font-size="0.60" font-family="monospace" font-style="normal" font-weight="400">
+address: String</text>
<text x="1.000" y="19.648"  fill="#000000" text-anchor="start" font-size="0.60" font-family="monospace" font-style="normal" font-weight="400">
+subject: String</text>
<text x="1.000" y="20.448"  fill="#000000" text-anchor="start" font-size="0.60" font-family="monospace" font-style="normal" font-weight="400">
+textBody: String</text>
<rect x="0.850" y="20.747" width="8.585" height="1.800" fill="#FFFFFF" stroke="none" stroke-width="0"/>
<rect x="0.850" y="20.747" width="8.585" height="1.800" fill="none" stroke="#000000" stroke-width="0.100" />
<text x="1.000" y="21.448"  fill="#000000" text-anchor="start" font-size="0.60" font-family="monospace" font-style="normal" font-weight="400">
+addText(text:String)</text>
<text x="1.000" y="22.248"  fill="#000000" text-anchor="start" font-size="0.60" font-family="monospace" font-style="normal" font-weight="400">
+send()</text>
<polyline fill="none" stroke="#000000" stroke-width="0.100"  points="18.718,3.541 18.718,2.700 7.760,2.700 "/>
<polygon fill="#FFFFFF" stroke="none" stroke-width="0.100" points="18.718,4.800 18.478,4.100 18.718,3.400 18.957,4.100 "/>
<polygon fill="none" stroke="#000000" stroke-width="0.100"  points="18.718,4.800 18.478,4.100 18.718,3.400 18.957,4.100 "/>
<text x="19.268" y="4.600"  fill="#000000" text-anchor="start" font-size="0.60" font-family="monospace" font-style="normal" font-weight="400">
1</text>
<text x="7.960" y="2.500"  fill="#000000" text-anchor="start" font-size="0.60" font-family="monospace" font-style="normal" font-weight="400">
*</text>
<rect x="20.626" y="14.535" width="5.127" height="1.400" fill="#FFFFFF" stroke="none" stroke-width="0"/>
<rect x="20.626" y="14.535" width="5.127" height="1.400" fill="none" stroke="#000000" stroke-width="0.100" />
<text x="23.190" y="15.485"  fill="#000000" text-anchor="middle" font-size="0.80" font-family="sans" font-style="normal" font-weight="700">
ClaimsList</text>
<rect x="20.626" y="15.935" width="5.127" height="0.400" fill="#FFFFFF" stroke="none" stroke-width="0"/>
<rect x="20.626" y="15.935" width="5.127" height="0.400" fill="none" stroke="#000000" stroke-width="0.100" />
<rect x="20.626" y="16.335" width="5.127" height="0.400" fill="#FFFFFF" stroke="none" stroke-width="0"/>
<rect x="20.626" y="16.335" width="5.127" height="0.400" fill="none" stroke="#000000" stroke-width="0.100" />
<rect x="0.650" y="6.162" width="6.275" height="1.400" fill="#FFFFFF" stroke="none" stroke-width="0"/>
<rect x="0.650" y="6.162" width="6.275" height="1.400" fill="none" stroke="#000000" stroke-width="0.100" />
<text x="3.788" y="7.112"  fill="#000000" text-anchor="middle" font-size="0.80" font-family="sans" font-style="normal" font-weight="700">
Exporter</text>
<rect x="0.650" y="7.562" width="6.275" height="0.400" fill="#FFFFFF" stroke="none" stroke-width="0"/>
<rect x="0.650" y="7.562" width="6.275" height="0.400" fill="none" stroke="#000000" stroke-width="0.100" />
<rect x="0.650" y="7.963" width="6.275" height="1.000" fill="#FFFFFF" stroke="none" stroke-width="0"/>
<rect x="0.650" y="7.963" width="6.275" height="1.000" fill="none" stroke="#000000" stroke-width="0.100" />
<text x="0.800" y="8.662"  fill="#000000" text-anchor="start" font-size="0.60" font-family="monospace" font-style="normal" font-weight="400">
+export()(Data)</text>
<polyline fill="none" stroke="#000000" stroke-width="0.100" stroke-dasharray="0.40,0.40" points="5.143,15.786 5.143,15.188 3.788,15.188 3.788,9.012 "/>
<polygon fill="#FFFFFF" stroke="none" stroke-width="0.100" points="4.743,15.786 5.143,16.586 5.543,15.786 "/>
<polygon fill="none" stroke="#000000" stroke-width="0.100"  points="4.743,15.786 5.143,16.586 5.543,15.786 "/>
<polyline fill="none" stroke="#000000" stroke-width="0.100"  points="12.451,7.700 7.750,7.700 7.750,7.562 6.961,7.562 "/>
<text x="7.850" y="7.431"  fill="#000000" text-anchor="start" font-size="0.60" font-family="monospace" font-style="normal" font-weight="400">
exported by</text>
<polygon fill="#000000" stroke="none" stroke-width="0.100" points="7.650,7.431 7.650,7.031 7.250,7.231 "/>
<rect x="7.600" y="12.600" width="5.202" height="1.400" fill="#FFFFFF" stroke="none" stroke-width="0"/>
<rect x="7.600" y="12.600" width="5.202" height="1.400" fill="none" stroke="#000000" stroke-width="0.100" />
<text x="10.201" y="13.550"  fill="#000000" text-anchor="middle" font-size="0.80" font-family="sans" font-style="normal" font-weight="700">
DataSaver</text>
<rect x="7.600" y="14.000" width="5.202" height="0.400" fill="#FFFFFF" stroke="none" stroke-width="0"/>
<rect x="7.600" y="14.000" width="5.202" height="0.400" fill="none" stroke="#000000" stroke-width="0.100" />
<rect x="7.600" y="14.400" width="5.202" height="0.400" fill="#FFFFFF" stroke="none" stroke-width="0"/>
<rect x="7.600" y="14.400" width="5.202" height="0.400" fill="none" stroke="#000000" stroke-width="0.100" />
<polyline fill="none" stroke="#000000" stroke-width="0.100"  points="23.190,13.227 23.190,12.100 18.718,12.100 18.718,10.650 "/>
<polygon fill="#FFFFFF" stroke="none" stroke-width="0.100" points="23.190,14.485 22.950,13.785 23.190,13.085 23.430,13.785 "/>
<polygon fill="none" stroke="#000000" stroke-width="0.100"  points="23.190,14.485 22.950,13.785 23.190,13.085 23.430,13.785 "/>
<text x="23.740" y="14.285"  fill="#000000" text-anchor="start" font-size="0.60" font-family="monospace" font-style="normal" font-weight="400">
0</text>
<text x="18.918" y="11.250"  fill="#000000" text-anchor="start" font-size="0.60" font-family="monospace" font-style="normal" font-weight="400">
*</text>
<rect x="13.850" y="12.300" width="6.275" height="1.400" fill="#FFFFFF" stroke="none" stroke-width="0"/>
<rect x="13.850" y="12.300" width="6.275" height="1.400" fill="none" stroke="#000000" stroke-width="0.100" />
<text x="16.988" y="13.250"  fill="#000000" text-anchor="middle" font-size="0.80" font-family="sans" font-style="normal" font-weight="700">
Importer</text>
<rect x="13.850" y="13.700" width="6.275" height="0.400" fill="#FFFFFF" stroke="none" stroke-width="0"/>
<rect x="13.850" y="13.700" width="6.275" height="0.400" fill="none" stroke="#000000" stroke-width="0.100" />
<rect x="13.850" y="14.100" width="6.275" height="1.000" fill="#FFFFFF" stroke="none" stroke-width="0"/>
<rect x="13.850" y="14.100" width="6.275" height="1.000" fill="none" stroke="#000000" stroke-width="0.100" />
<text x="14.000" y="14.800"  fill="#000000" text-anchor="start" font-size="0.60" font-family="monospace" font-style="normal" font-weight="400">
+import(): Data</text>
<polyline fill="none" stroke="#000000" stroke-width="0.100"  points="18.536,20.125 21.750,20.125 21.750,16.735 23.190,16.735 "/>
<text x="21.850" y="18.230"  fill="#000000" text-anchor="start" font-size="0.60" font-family="monospace" font-style="normal" font-weight="400">
imports</text>
<polygon fill="#000000" stroke="none" stroke-width="0.100" points="24.645,18.230 24.645,17.830 25.045,18.030 "/>
<rect x="12.750" y="19.025" width="5.737" height="1.400" fill="#FFFFFF" stroke="none" stroke-width="0"/>
<rect x="12.750" y="19.025" width="5.737" height="1.400" fill="none" stroke="#000000" stroke-width="0.100" />
<text x="15.619" y="19.975"  fill="#000000" text-anchor="middle" font-size="0.80" font-family="sans" font-style="normal" font-weight="700">
DataLoader</text>
<rect x="12.750" y="20.425" width="5.737" height="0.400" fill="#FFFFFF" stroke="none" stroke-width="0"/>
<rect x="12.750" y="20.425" width="5.737" height="0.400" fill="none" stroke="#000000" stroke-width="0.100" />
<rect x="12.750" y="20.825" width="5.737" height="0.400" fill="#FFFFFF" stroke="none" stroke-width="0"/>
<rect x="12.750" y="20.825" width="5.737" height="0.400" fill="none" stroke="#000000" stroke-width="0.100" />
<polyline fill="none" stroke="#000000" stroke-width="0.100" stroke-dasharray="0.40,0.40" points="17.227,18.051 17.227,16.613 16.988,16.613 16.988,15.148 "/>
<polygon fill="#FFFFFF" stroke="none" stroke-width="0.100" points="16.827,18.051 17.227,18.851 17.627,18.051 "/>
<polygon fill="none" stroke="#000000" stroke-width="0.100"  points="16.827,18.051 17.227,18.851 17.627,18.051 "/>
<polyline fill="none" stroke="#000000" stroke-width="0.100" stroke-dasharray="0.40,0.40" points="10.201,11.638 10.201,10.381 3.788,10.381 3.788,9.013 "/>
<polygon fill="#FFFFFF" stroke="none" stroke-width="0.100" points="9.801,11.638 10.201,12.438 10.601,11.638 "/>
<polygon fill="none" stroke="#000000" stroke-width="0.100"  points="9.801,11.638 10.201,12.438 10.601,11.638 "/>
<polyline fill="none" stroke="#000000" stroke-width="0.100"  points="10.201,14.800 10.201,16.887 15.619,16.887 15.619,18.975 "/>
<text x="12.910" y="16.687"  fill="#000000" text-anchor="middle" font-size="0.60" font-family="monospace" font-style="normal" font-weight="400">
readable by</text>
<polygon fill="#000000" stroke="none" stroke-width="0.100" points="15.128,16.687 15.128,16.287 15.528,16.487 "/>
</svg>
