<?xml version="1.0" encoding="UTF-8" standalone="no"?>
<!-- Created by diasvg.py -->
<svg width="24.278cm" height="21.747cm" viewBox="0.750 0.850 25.028 22.598"
 xmlns="http://www.w3.org/2000/svg"
 xmlns:xlink="http://www.w3.org/1999/xlink">
<rect x="1.050" y="0.900" width="6.660" height="1.400" fill="#FFFFFF" stroke="none" stroke-width="0"/>
<rect x="1.050" y="0.900" width="6.660" height="1.400" fill="none" stroke="#000000" stroke-width="0.100" />
<text x="4.380" y="1.850"  fill="#000000" text-anchor="middle" font-size="0.80" font-family="sans" font-style="normal" font-weight="700">
Expense</text>
<rect x="1.050" y="2.300" width="6.660" height="1.800" fill="#FFFFFF" stroke="none" stroke-width="0"/>
<rect x="1.050" y="2.300" width="6.660" height="1.800" fill="none" stroke="#000000" stroke-width="0.100" />
<text x="1.200" y="3.000"  fill="#000000" text-anchor="start" font-size="0.60" font-family="monospace" font-style="normal" font-weight="400">
+name: String</text>
<text x="1.200" y="3.800"  fill="#000000" text-anchor="start" font-size="0.60" font-family="monospace" font-style="normal" font-weight="400">
+value: Monetary</text>
<rect x="1.050" y="4.100" width="6.660" height="0.400" fill="#FFFFFF" stroke="none" stroke-width="0"/>
<rect x="1.050" y="4.100" width="6.660" height="0.400" fill="none" stroke="#000000" stroke-width="0.100" />
<rect x="11.150" y="4.900" width="12.435" height="1.400" fill="#FFFFFF" stroke="none" stroke-width="0"/>
<rect x="11.150" y="4.900" width="12.435" height="1.400" fill="none" stroke="#000000" stroke-width="0.100" />
<text x="17.368" y="5.850"  fill="#000000" text-anchor="middle" font-size="0.80" font-family="sans" font-style="normal" font-weight="700">
Claim</text>
<rect x="11.150" y="6.300" width="12.435" height="1.800" fill="#FFFFFF" stroke="none" stroke-width="0"/>
<rect x="11.150" y="6.300" width="12.435" height="1.800" fill="none" stroke="#000000" stroke-width="0.100" />
<text x="11.300" y="7.000"  fill="#000000" text-anchor="start" font-size="0.60" font-family="monospace" font-style="normal" font-weight="400">
+name: String</text>
<text x="11.300" y="7.800"  fill="#000000" text-anchor="start" font-size="0.60" font-family="monospace" font-style="normal" font-weight="400">
+status: Status</text>
<rect x="11.150" y="8.100" width="12.435" height="2.600" fill="#FFFFFF" stroke="none" stroke-width="0"/>
<rect x="11.150" y="8.100" width="12.435" height="2.600" fill="none" stroke="#000000" stroke-width="0.100" />
<text x="11.300" y="8.800"  fill="#000000" text-anchor="start" font-size="0.60" font-family="monospace" font-style="normal" font-weight="400">
+addExpense(expense:Expense)</text>
<text x="11.300" y="9.600"  fill="#000000" text-anchor="start" font-size="0.60" font-family="monospace" font-style="normal" font-weight="400">
+deleteExpense(expense:Expense)</text>
<text x="11.300" y="10.400"  fill="#000000" text-anchor="start" font-size="0.60" font-family="monospace" font-style="normal" font-weight="400">
+getExpense(index:int): Expense</text>
<rect x="0.850" y="16.747" width="8.585" height="1.400" fill="#FFFFFF" stroke="none" stroke-width="0"/>
<rect x="0.850" y="16.747" width="8.585" height="1.400" fill="none" stroke="#000000" stroke-width="0.100" />
<text x="5.143" y="17.697"  fill="#000000" text-anchor="middle" font-size="0.80" font-family="sans" font-style="normal" font-weight="700">
Email</text>
<rect x="0.850" y="18.147" width="8.585" height="2.600" fill="#FFFFFF" stroke="none" stroke-width="0"/>
<rect x="0.850" y="18.147" width="8.585" height="2.600" fill="none" stroke="#000000" stroke-width="0.100" />
<text x="1.000" y="18.848"  fill="#000000" text-anchor="start" font-size="0.60" font-family="monospace" font-style="normal" font-weight="400">
+address: String</text>
<text x="1.000" y="19.648"  fill="#000000" text-anchor="start" font-size="0.60" font-family="monospace" font-style="normal" font-weight="400">
+subject: String</text>
<text x="1.000" y="20.448"  fill="#000000" text-anchor="start" font-size="0.60" font-family="monospace" font-style="normal" font-weight="400">
+textBody: String</text>
<rect x="0.850" y="20.747" width="8.585" height="1.800" fill="#FFFFFF" stroke="none" stroke-width="0"/>
<rect x="0.850" y="20.747" width="8.585" height="1.800" fill="none" stroke="#000000" stroke-width="0.100" />
<text x="1.000" y="21.448"  fill="#000000" text-anchor="start" font-size="0.60" font-family="monospace" font-style="normal" font-weight="400">
+addText(text:String)</text>
<text x="1.000" y="22.248"  fill="#000000" text-anchor="start" font-size="0.60" font-family="monospace" font-style="normal" font-weight="400">
+send()</text>
<polyline fill="none" stroke="#000000" stroke-width="0.100"  points="17.368,3.641 17.368,2.800 7.710,2.800 "/>
<polygon fill="#FFFFFF" stroke="none" stroke-width="0.100" points="17.368,4.900 17.128,4.200 17.368,3.500 17.608,4.200 "/>
<polygon fill="none" stroke="#000000" stroke-width="0.100"  points="17.368,4.900 17.128,4.200 17.368,3.500 17.608,4.200 "/>
<text x="17.918" y="4.700"  fill="#000000" text-anchor="start" font-size="0.60" font-family="monospace" font-style="normal" font-weight="400">
1</text>
<text x="7.910" y="2.600"  fill="#000000" text-anchor="start" font-size="0.60" font-family="monospace" font-style="normal" font-weight="400">
*</text>
<rect x="19.850" y="14.498" width="5.127" height="1.400" fill="#FFFFFF" stroke="none" stroke-width="0"/>
<rect x="19.850" y="14.498" width="5.127" height="1.400" fill="none" stroke="#000000" stroke-width="0.100" />
<text x="22.414" y="15.447"  fill="#000000" text-anchor="middle" font-size="0.80" font-family="sans" font-style="normal" font-weight="700">
ClaimsList</text>
<rect x="19.850" y="15.898" width="5.127" height="0.400" fill="#FFFFFF" stroke="none" stroke-width="0"/>
<rect x="19.850" y="15.898" width="5.127" height="0.400" fill="none" stroke="#000000" stroke-width="0.100" />
<rect x="19.850" y="16.297" width="5.127" height="0.400" fill="#FFFFFF" stroke="none" stroke-width="0"/>
<rect x="19.850" y="16.297" width="5.127" height="0.400" fill="none" stroke="#000000" stroke-width="0.100" />
<rect x="0.800" y="6.713" width="4.400" height="1.400" fill="#FFFFFF" stroke="none" stroke-width="0"/>
<rect x="0.800" y="6.713" width="4.400" height="1.400" fill="none" stroke="#000000" stroke-width="0.100" />
<text x="3.000" y="7.663"  fill="#000000" text-anchor="middle" font-size="0.80" font-family="sans" font-style="normal" font-weight="700">
Exporter</text>
<rect x="0.800" y="8.113" width="4.400" height="0.400" fill="#FFFFFF" stroke="none" stroke-width="0"/>
<rect x="0.800" y="8.113" width="4.400" height="0.400" fill="none" stroke="#000000" stroke-width="0.100" />
<rect x="0.800" y="8.513" width="4.400" height="0.400" fill="#FFFFFF" stroke="none" stroke-width="0"/>
<rect x="0.800" y="8.513" width="4.400" height="0.400" fill="none" stroke="#000000" stroke-width="0.100" />
<polyline fill="none" stroke="#000000" stroke-width="0.100" stroke-dasharray="0.40,0.40" points="5.143,15.786 5.143,15.187 3.000,15.187 3.000,8.962 "/>
<polygon fill="#FFFFFF" stroke="none" stroke-width="0.100" points="4.743,15.786 5.143,16.586 5.543,15.786 "/>
<polygon fill="none" stroke="#000000" stroke-width="0.100"  points="4.743,15.786 5.143,16.586 5.543,15.786 "/>
<polyline fill="none" stroke="#000000" stroke-width="0.100"  points="11.100,7.800 6.100,7.800 6.100,7.812 5.250,7.812 "/>
<text x="6.200" y="7.606"  fill="#000000" text-anchor="start" font-size="0.60" font-family="monospace" font-style="normal" font-weight="400">
exported by</text>
<polygon fill="#000000" stroke="none" stroke-width="0.100" points="6.000,7.606 6.000,7.206 5.600,7.406 "/>
<rect x="4.650" y="11.700" width="5.202" height="1.400" fill="#FFFFFF" stroke="none" stroke-width="0"/>
<rect x="4.650" y="11.700" width="5.202" height="1.400" fill="none" stroke="#000000" stroke-width="0.100" />
<text x="7.251" y="12.650"  fill="#000000" text-anchor="middle" font-size="0.80" font-family="sans" font-style="normal" font-weight="700">
DataSaver</text>
<rect x="4.650" y="13.100" width="5.202" height="0.400" fill="#FFFFFF" stroke="none" stroke-width="0"/>
<rect x="4.650" y="13.100" width="5.202" height="0.400" fill="none" stroke="#000000" stroke-width="0.100" />
<rect x="4.650" y="13.500" width="5.202" height="0.400" fill="#FFFFFF" stroke="none" stroke-width="0"/>
<rect x="4.650" y="13.500" width="5.202" height="0.400" fill="none" stroke="#000000" stroke-width="0.100" />
<polyline fill="none" stroke="#000000" stroke-width="0.100"  points="22.414,13.189 22.414,11.800 17.368,11.800 17.368,10.750 "/>
<polygon fill="#FFFFFF" stroke="none" stroke-width="0.100" points="22.414,14.447 22.174,13.747 22.414,13.047 22.654,13.747 "/>
<polygon fill="none" stroke="#000000" stroke-width="0.100"  points="22.414,14.447 22.174,13.747 22.414,13.047 22.654,13.747 "/>
<text x="22.964" y="14.247"  fill="#000000" text-anchor="start" font-size="0.60" font-family="monospace" font-style="normal" font-weight="400">
0</text>
<text x="17.568" y="11.350"  fill="#000000" text-anchor="start" font-size="0.60" font-family="monospace" font-style="normal" font-weight="400">
*</text>
<rect x="13.350" y="12.550" width="4.467" height="1.400" fill="#FFFFFF" stroke="none" stroke-width="0"/>
<rect x="13.350" y="12.550" width="4.467" height="1.400" fill="none" stroke="#000000" stroke-width="0.100" />
<text x="15.584" y="13.500"  fill="#000000" text-anchor="middle" font-size="0.80" font-family="sans" font-style="normal" font-weight="700">
Importer</text>
<rect x="13.350" y="13.950" width="4.467" height="0.400" fill="#FFFFFF" stroke="none" stroke-width="0"/>
<rect x="13.350" y="13.950" width="4.467" height="0.400" fill="none" stroke="#000000" stroke-width="0.100" />
<rect x="13.350" y="14.350" width="4.467" height="0.400" fill="#FFFFFF" stroke="none" stroke-width="0"/>
<rect x="13.350" y="14.350" width="4.467" height="0.400" fill="none" stroke="#000000" stroke-width="0.100" />
<polyline fill="none" stroke="#000000" stroke-width="0.100"  points="16.737,19.825 17.800,19.825 17.800,15.598 19.800,15.598 "/>
<text x="17.900" y="17.511"  fill="#000000" text-anchor="start" font-size="0.60" font-family="monospace" font-style="normal" font-weight="400">
imports</text>
<polygon fill="#000000" stroke="none" stroke-width="0.100" points="20.695,17.511 20.695,17.111 21.095,17.311 "/>
<rect x="10.950" y="18.725" width="5.738" height="1.400" fill="#FFFFFF" stroke="none" stroke-width="0"/>
<rect x="10.950" y="18.725" width="5.738" height="1.400" fill="none" stroke="#000000" stroke-width="0.100" />
<text x="13.819" y="19.675"  fill="#000000" text-anchor="middle" font-size="0.80" font-family="sans" font-style="normal" font-weight="700">
DataLoader</text>
<rect x="10.950" y="20.125" width="5.738" height="0.400" fill="#FFFFFF" stroke="none" stroke-width="0"/>
<rect x="10.950" y="20.125" width="5.738" height="0.400" fill="none" stroke="#000000" stroke-width="0.100" />
<rect x="10.950" y="20.525" width="5.738" height="0.400" fill="#FFFFFF" stroke="none" stroke-width="0"/>
<rect x="10.950" y="20.525" width="5.738" height="0.400" fill="none" stroke="#000000" stroke-width="0.100" />
<polyline fill="none" stroke="#000000" stroke-width="0.100" stroke-dasharray="0.40,0.40" points="15.600,17.738 15.600,16.312 15.584,16.312 15.584,14.800 "/>
<polygon fill="#FFFFFF" stroke="none" stroke-width="0.100" points="15.200,17.738 15.600,18.538 16.000,17.738 "/>
<polygon fill="none" stroke="#000000" stroke-width="0.100"  points="15.200,17.738 15.600,18.538 16.000,17.738 "/>
<polyline fill="none" stroke="#000000" stroke-width="0.100" stroke-dasharray="0.40,0.40" points="7.251,10.738 7.251,9.906 3.000,9.906 3.000,8.963 "/>
<polygon fill="#FFFFFF" stroke="none" stroke-width="0.100" points="6.851,10.738 7.251,11.538 7.651,10.738 "/>
<polygon fill="none" stroke="#000000" stroke-width="0.100"  points="6.851,10.738 7.251,11.538 7.651,10.738 "/>
<polyline fill="none" stroke="#000000" stroke-width="0.100"  points="7.251,13.900 7.251,16.287 13.819,16.287 13.819,18.675 "/>
<text x="10.535" y="16.087"  fill="#000000" text-anchor="middle" font-size="0.60" font-family="monospace" font-style="normal" font-weight="400">
readable by</text>
<polygon fill="#000000" stroke="none" stroke-width="0.100" points="12.753,16.087 12.753,15.687 13.153,15.887 "/>
</svg>
